<svg width="16" height="16" viewBox="0 0 16 16" fill="none" xmlns="http://www.w3.org/2000/svg">
<path fill-rule="evenodd" clip-rule="evenodd" d="M4.83325 8C4.83325 7.72386 5.05711 7.5 5.33325 7.5H10.6666C10.9427 7.5 11.1666 7.72386 11.1666 8C11.1666 8.27614 10.9427 8.5 10.6666 8.5H5.33325C5.05711 8.5 4.83325 8.27614 4.83325 8Z" fill="#787486"/>
<path fill-rule="evenodd" clip-rule="evenodd" d="M8 4.83333C8.27614 4.83333 8.5 5.05719 8.5 5.33333V10.6667C8.5 10.9428 8.27614 11.1667 8 11.1667C7.72386 11.1667 7.5 10.9428 7.5 10.6667V5.33333C7.5 5.05719 7.72386 4.83333 8 4.83333Z" fill="#787486"/>
<path fill-rule="evenodd" clip-rule="evenodd" d="M2.06303 2.06311C2.95268 1.17346 4.28394 0.833328 5.99992 0.833328H9.99992C11.7159 0.833328 13.0472 1.17346 13.9368 2.06311C14.8265 2.95275 15.1666 4.28401 15.1666 6V10C15.1666 11.716 14.8265 13.0472 13.9368 13.9369C13.0472 14.8265 11.7159 15.1667 9.99992 15.1667H5.99992C4.28394 15.1667 2.95268 14.8265 2.06303 13.9369C1.17339 13.0472 0.833252 11.716 0.833252 10V6C0.833252 4.28401 1.17339 2.95275 2.06303 2.06311ZM2.77014 2.77022C2.15978 3.38057 1.83325 4.38264 1.83325 6V10C1.83325 11.6173 2.15978 12.6194 2.77014 13.2298C3.38049 13.8401 4.38257 14.1667 5.99992 14.1667H9.99992C11.6173 14.1667 12.6193 13.8401 13.2297 13.2298C13.8401 12.6194 14.1666 11.6173 14.1666 10V6C14.1666 4.38264 13.8401 3.38057 13.2297 2.77022C12.6193 2.15986 11.6173 1.83333 9.99992 1.83333H5.99992C4.38257 1.83333 3.38049 2.15986 2.77014 2.77022Z" fill="#787486"/>
</svg>
