<svg width="14" height="16" viewBox="0 0 14 16" fill="none" xmlns="http://www.w3.org/2000/svg">
<path fill-rule="evenodd" clip-rule="evenodd" d="M4.33335 0.683334C4.69233 0.683334 4.98335 0.974349 4.98335 1.33333V3.33333C4.98335 3.69232 4.69233 3.98333 4.33335 3.98333C3.97436 3.98333 3.68335 3.69232 3.68335 3.33333V1.33333C3.68335 0.974349 3.97436 0.683334 4.33335 0.683334Z" fill="#787486"/>
<path fill-rule="evenodd" clip-rule="evenodd" d="M9.66685 0.683334C10.0258 0.683334 10.3168 0.974349 10.3168 1.33333V3.33333C10.3168 3.69232 10.0258 3.98333 9.66685 3.98333C9.30786 3.98333 9.01685 3.69232 9.01685 3.33333V1.33333C9.01685 0.974349 9.30786 0.683334 9.66685 0.683334Z" fill="#787486"/>
<path fill-rule="evenodd" clip-rule="evenodd" d="M4.2964 1.68439C4.30873 1.68369 4.32108 1.68333 4.33343 1.68333H9.66676C9.67846 1.68333 9.69016 1.68365 9.70185 1.68428C10.8663 1.74722 11.9183 2.00557 12.6493 2.8188C13.3689 3.61922 13.6501 4.81765 13.6501 6.43333V10.5533C13.6501 11.936 13.4936 13.1835 12.7455 14.0642C11.9739 14.9724 10.7275 15.3233 9.0001 15.3233H5.0001C3.27273 15.3233 2.02629 14.9724 1.25472 14.0642C0.506596 13.1835 0.350098 11.936 0.350098 10.5533V6.43333C0.350098 4.81761 0.631355 3.62063 1.35116 2.82097C2.08189 2.00916 3.13337 1.75075 4.2964 1.68439ZM4.35229 2.98333C3.30643 3.04518 2.69612 3.26994 2.31737 3.6907C1.92551 4.12604 1.6501 4.91573 1.6501 6.43333V10.5533C1.6501 11.9173 1.82693 12.7298 2.24548 13.2225C2.64057 13.6876 3.39413 14.0233 5.0001 14.0233H9.0001C10.6061 14.0233 11.3596 13.6876 11.7547 13.2225C12.1733 12.7298 12.3501 11.9173 12.3501 10.5533V6.43333C12.3501 4.91568 12.0747 4.12411 11.6825 3.68787C11.304 3.26674 10.6939 3.0419 9.64889 2.98333H4.35229Z" fill="#787486"/>
<path fill-rule="evenodd" clip-rule="evenodd" d="M0.516846 11.7333C0.516846 11.3744 0.807861 11.0833 1.16685 11.0833H12.8335C13.1925 11.0833 13.4835 11.3744 13.4835 11.7333C13.4835 12.0923 13.1925 12.3833 12.8335 12.3833H1.16685C0.807861 12.3833 0.516846 12.0923 0.516846 11.7333Z" fill="#787486"/>
<path d="M7.00016 5.5C6.18016 5.5 5.48683 5.94667 5.48683 6.81333C5.48683 7.22667 5.68016 7.54 5.9735 7.74C5.56683 7.98 5.3335 8.36667 5.3335 8.82C5.3335 9.64667 5.96683 10.16 7.00016 10.16C8.02683 10.16 8.66683 9.64667 8.66683 8.82C8.66683 8.36667 8.4335 7.97333 8.02016 7.74C8.32016 7.53333 8.50683 7.22667 8.50683 6.81333C8.50683 5.94667 7.82016 5.5 7.00016 5.5ZM7.00016 7.39333C6.6535 7.39333 6.40016 7.18667 6.40016 6.86C6.40016 6.52667 6.6535 6.33333 7.00016 6.33333C7.34683 6.33333 7.60016 6.52667 7.60016 6.86C7.60016 7.18667 7.34683 7.39333 7.00016 7.39333ZM7.00016 9.33333C6.56016 9.33333 6.24016 9.11333 6.24016 8.71333C6.24016 8.31333 6.56016 8.1 7.00016 8.1C7.44016 8.1 7.76016 8.32 7.76016 8.71333C7.76016 9.11333 7.44016 9.33333 7.00016 9.33333Z" fill="#787486"/>
</svg>
