<svg width="20" height="20" viewBox="0 0 20 20" fill="none" xmlns="http://www.w3.org/2000/svg">
<path d="M16.5375 17.4479C16.3792 17.4479 16.2208 17.3896 16.0958 17.2646L10.6625 11.8313C9.77917 10.9479 9.77917 9.49792 10.6625 8.61458L16.0958 3.18125C16.3375 2.93958 16.7375 2.93958 16.9792 3.18125C17.2208 3.42292 17.2208 3.82292 16.9792 4.06458L11.5458 9.49792C11.1458 9.89792 11.1458 10.5479 11.5458 10.9479L16.9792 16.3812C17.2208 16.6229 17.2208 17.0229 16.9792 17.2646C16.8542 17.3813 16.6958 17.4479 16.5375 17.4479Z" fill="#787486"/>
<path d="M9.5375 17.4479C9.37917 17.4479 9.22083 17.3896 9.09583 17.2646L3.6625 11.8313C2.77917 10.9479 2.77917 9.49792 3.6625 8.61458L9.09583 3.18125C9.3375 2.93958 9.7375 2.93958 9.97917 3.18125C10.2208 3.42292 10.2208 3.82292 9.97917 4.06458L4.54583 9.49792C4.14583 9.89792 4.14583 10.5479 4.54583 10.9479L9.97917 16.3812C10.2208 16.6229 10.2208 17.0229 9.97917 17.2646C9.85417 17.3813 9.69583 17.4479 9.5375 17.4479Z" fill="#787486"/>
</svg>
