<svg width="14" height="15" viewBox="0 0 14 15" fill="none" xmlns="http://www.w3.org/2000/svg">
<path fill-rule="evenodd" clip-rule="evenodd" d="M2.60003 1.65001C2.24628 1.65001 1.9167 1.93804 1.9167 2.40001V3.93334C1.9167 4.0092 1.94791 4.16523 2.03483 4.35912C2.11923 4.5474 2.22847 4.70921 2.32632 4.80705L2.33795 4.81899L4.87128 7.48565C4.88397 7.49901 4.89609 7.5129 4.9076 7.52729C5.08741 7.75205 5.25075 8.04328 5.37021 8.34194C5.48827 8.63709 5.58337 8.98898 5.58337 9.33334V12.8667C5.58337 13.3847 6.18868 13.7313 6.65474 13.4493L7.58187 12.8532C7.58751 12.8496 7.5932 12.8461 7.59894 12.8426C7.62783 12.8253 7.70645 12.7531 7.78167 12.6085C7.85482 12.4678 7.88337 12.3374 7.88337 12.2667V9.40001C7.88337 9.03337 7.97295 8.64715 8.11832 8.30448C8.26122 7.96766 8.47867 7.62459 8.7759 7.37404L11.6191 4.86149C11.7168 4.75963 11.8368 4.58496 11.9333 4.3727C12.0346 4.14994 12.0834 3.94402 12.0834 3.80001V2.33334C12.0834 1.95899 11.7744 1.65001 11.4 1.65001H2.60003ZM0.616699 2.40001C0.616699 1.26197 1.48712 0.350006 2.60003 0.350006H11.4C12.4924 0.350006 13.3834 1.24102 13.3834 2.33334V3.80001C13.3834 4.18932 13.2655 4.58341 13.1168 4.91064C12.9672 5.23963 12.7599 5.55938 12.5263 5.79296C12.5169 5.8024 12.5071 5.81156 12.4971 5.8204L9.63046 8.35374L9.61615 8.36602C9.51749 8.44823 9.40423 8.60204 9.31508 8.8122C9.22712 9.01953 9.18337 9.23331 9.18337 9.40001V12.2667C9.18337 12.596 9.07858 12.9322 8.93506 13.2082C8.79516 13.4772 8.57709 13.7682 8.27777 13.9513L7.34076 14.5537C6.0741 15.3332 4.28337 14.4802 4.28337 12.8667V9.33334C4.28337 9.21103 4.24513 9.02958 4.16319 8.82474C4.08724 8.63486 3.99102 8.46802 3.90745 8.35857L1.40065 5.71984C1.16812 5.48525 0.979629 5.18326 0.848568 4.89089C0.718817 4.60145 0.616699 4.25748 0.616699 3.93334V2.40001Z" fill="#787486"/>
</svg>
