<svg width="15" height="16" viewBox="0 0 15 16" fill="none" xmlns="http://www.w3.org/2000/svg">
<path fill-rule="evenodd" clip-rule="evenodd" d="M2.02022 2.35353C1.67922 2.69453 1.5 3.32974 1.5 4.66665V11.3333C1.5 12.6702 1.67922 13.3054 2.02022 13.6464C2.36122 13.9874 2.99643 14.1666 4.33333 14.1666H11C12.3369 14.1666 12.9721 13.9874 13.3131 13.6464C13.6541 13.3054 13.8333 12.6702 13.8333 11.3333V7.33331C13.8333 5.99641 13.6541 5.3612 13.3131 5.0202C12.9721 4.6792 12.3369 4.49998 11 4.49998H9C8.62154 4.49998 8.31446 4.44423 8.05304 4.28623C7.81964 4.14516 7.66768 3.94424 7.55615 3.79678C7.54902 3.78735 7.54206 3.77815 7.53525 3.76919L7.53333 3.76665L7.53333 3.76665L6.53333 2.43331C6.3314 2.16407 6.23742 2.04945 6.10835 1.97192C5.99113 1.9015 5.79005 1.83331 5.33333 1.83331H4.33333C2.99643 1.83331 2.36122 2.01254 2.02022 2.35353ZM1.31311 1.64643C1.97212 0.987423 3.00357 0.833313 4.33333 0.833313H5.33333C5.87662 0.833313 6.28554 0.911795 6.62331 1.11471C6.93595 1.30252 7.13825 1.57274 7.31138 1.80401C7.31875 1.81385 7.32607 1.82362 7.33333 1.83331L8.33237 3.16536C8.47161 3.34853 8.51541 3.39722 8.5703 3.4304C8.6122 3.45573 8.71179 3.49998 9 3.49998H11C12.3298 3.49998 13.3612 3.65409 14.0202 4.31309C14.6792 4.9721 14.8333 6.00355 14.8333 7.33331V11.3333C14.8333 12.6631 14.6792 13.6945 14.0202 14.3535C13.3612 15.0125 12.3298 15.1666 11 15.1666H4.33333C3.00357 15.1666 1.97212 15.0125 1.31311 14.3535C0.65411 13.6945 0.5 12.6631 0.5 11.3333V4.66665C0.5 3.33689 0.65411 2.30543 1.31311 1.64643Z" fill="#787486"/>
<path fill-rule="evenodd" clip-rule="evenodd" d="M4.83325 1.33331C4.83325 1.05717 5.05711 0.833313 5.33325 0.833313H11.3333C12.077 0.833313 12.7266 1.01959 13.1868 1.47976C13.647 1.93993 13.8333 2.58957 13.8333 3.33331V4.25331C13.8333 4.52946 13.6094 4.75331 13.3333 4.75331C13.0571 4.75331 12.8333 4.52946 12.8333 4.25331V3.33331C12.8333 2.74372 12.6862 2.39336 12.4797 2.18687C12.2732 1.98037 11.9228 1.83331 11.3333 1.83331H5.33325C5.05711 1.83331 4.83325 1.60946 4.83325 1.33331Z" fill="#787486"/>
<path fill-rule="evenodd" clip-rule="evenodd" d="M5.5 10C5.5 9.72386 5.72386 9.5 6 9.5H9.33333C9.60948 9.5 9.83333 9.72386 9.83333 10C9.83333 10.2761 9.60948 10.5 9.33333 10.5H6C5.72386 10.5 5.5 10.2761 5.5 10Z" fill="#787486"/>
</svg>
