<svg width="17" height="17" viewBox="0 0 17 17" fill="none" xmlns="http://www.w3.org/2000/svg">
<path fill-rule="evenodd" clip-rule="evenodd" d="M13.1948 1.74994C12.2283 1.74994 11.4448 2.53344 11.4448 3.49994C11.4448 4.46644 12.2283 5.24994 13.1948 5.24994C14.1613 5.24994 14.9448 4.46643 14.9448 3.49994C14.9448 2.53344 14.1613 1.74994 13.1948 1.74994ZM9.94482 3.49994C9.94482 1.70502 11.3999 0.249939 13.1948 0.249939C14.9897 0.249939 16.4448 1.70501 16.4448 3.49994C16.4448 5.29487 14.9897 6.74994 13.1948 6.74994C11.3999 6.74994 9.94482 5.29486 9.94482 3.49994Z" fill="#787486"/>
<path fill-rule="evenodd" clip-rule="evenodd" d="M3.50001 1.74994C2.53351 1.74994 1.75 2.53344 1.75 3.49994C1.75 4.46643 2.53351 5.24994 3.50001 5.24994C4.4665 5.24994 5.25 4.46644 5.25 3.49994C5.25 2.53344 4.4665 1.74994 3.50001 1.74994ZM0.25 3.49994C0.25 1.70501 1.70508 0.249939 3.50001 0.249939C5.29493 0.249939 6.75 1.70502 6.75 3.49994C6.75 5.29486 5.29494 6.74994 3.50001 6.74994C1.70508 6.74994 0.25 5.29487 0.25 3.49994Z" fill="#787486"/>
<path fill-rule="evenodd" clip-rule="evenodd" d="M13.1948 11.7499C12.2283 11.7499 11.4448 12.5334 11.4448 13.4999C11.4448 14.4664 12.2283 15.2499 13.1948 15.2499C14.1613 15.2499 14.9448 14.4664 14.9448 13.4999C14.9448 12.5334 14.1613 11.7499 13.1948 11.7499ZM9.94482 13.4999C9.94482 11.705 11.3999 10.2499 13.1948 10.2499C14.9897 10.2499 16.4448 11.705 16.4448 13.4999C16.4448 15.2949 14.9897 16.7499 13.1948 16.7499C11.3999 16.7499 9.94482 15.2949 9.94482 13.4999Z" fill="#787486"/>
<path fill-rule="evenodd" clip-rule="evenodd" d="M3.50001 11.7499C2.53351 11.7499 1.75 12.5334 1.75 13.4999C1.75 14.4664 2.53351 15.2499 3.50001 15.2499C4.4665 15.2499 5.25 14.4664 5.25 13.4999C5.25 12.5334 4.4665 11.7499 3.50001 11.7499ZM0.25 13.4999C0.25 11.705 1.70508 10.2499 3.50001 10.2499C5.29493 10.2499 6.75 11.705 6.75 13.4999C6.75 15.2949 5.29494 16.7499 3.50001 16.7499C1.70508 16.7499 0.25 15.2949 0.25 13.4999Z" fill="#787486"/>
</svg>
