<svg width="22" height="22" viewBox="0 0 22 22" fill="none" xmlns="http://www.w3.org/2000/svg">
<path fill-rule="evenodd" clip-rule="evenodd" d="M3.03033 3.03033C2.22059 3.84007 1.75 5.11561 1.75 7V12C1.75 14.4353 2.24367 15.6541 2.99388 16.3106C3.76886 16.9887 5.01326 17.25 7 17.25H7.5C7.78282 17.25 8.05796 17.3383 8.27436 17.4455C8.48803 17.5515 8.7297 17.7182 8.90264 17.9535L10.4 19.95C10.6092 20.2289 10.8337 20.31 11 20.31C11.1663 20.31 11.3908 20.2289 11.6 19.95L13.1 17.95L13.1029 17.9462C13.4325 17.5124 13.9521 17.25 14.5 17.25H15C16.8844 17.25 18.1599 16.7794 18.9697 15.9697C19.7794 15.1599 20.25 13.8844 20.25 12V7C20.25 5.11561 19.7794 3.84007 18.9697 3.03033C18.1599 2.22059 16.8844 1.75 15 1.75H7C5.11561 1.75 3.84007 2.22059 3.03033 3.03033ZM1.96967 1.96967C3.15993 0.77941 4.88439 0.25 7 0.25H15C17.1156 0.25 18.8401 0.77941 20.0303 1.96967C21.2206 3.15993 21.75 4.88439 21.75 7V12C21.75 14.1156 21.2206 15.8401 20.0303 17.0303C18.8401 18.2206 17.1156 18.75 15 18.75H14.5C14.4284 18.75 14.3486 18.7871 14.2982 18.8524C14.2978 18.8529 14.2975 18.8534 14.2971 18.8538L12.8 20.85C12.3492 21.4511 11.7037 21.81 11 21.81C10.2963 21.81 9.65084 21.4511 9.2 20.85L7.69876 18.8484C7.69654 18.8462 7.69203 18.8422 7.6847 18.8365C7.66662 18.8224 7.64037 18.8054 7.60814 18.7895C7.57598 18.7735 7.54532 18.7622 7.52072 18.7556C7.50625 18.7517 7.49766 18.7504 7.49494 18.75H7C4.98674 18.75 3.23114 18.5113 2.00612 17.4394C0.756333 16.3459 0.25 14.5647 0.25 12V7C0.25 4.88439 0.77941 3.15993 1.96967 1.96967Z" fill="#787486"/>
<path fill-rule="evenodd" clip-rule="evenodd" d="M8.59009 7.52002C8.59009 6.18584 9.66581 5.10999 11.0001 5.10999C12.3343 5.10999 13.41 6.18584 13.41 7.52002C13.41 8.57292 12.7178 9.12859 12.2648 9.4382C12.0703 9.57254 11.945 9.6782 11.8638 9.78706C11.7964 9.87751 11.7501 9.98211 11.7501 10.15V10.36C11.7501 10.7742 11.4143 11.11 11.0001 11.11C10.5858 11.11 10.2501 10.7742 10.2501 10.36V10.15C10.2501 9.07315 10.9587 8.51714 11.4139 8.20283L11.4171 8.20065L11.4171 8.20066C11.6023 8.0742 11.7234 7.97096 11.8012 7.86603C11.8663 7.77816 11.91 7.67775 11.91 7.52002C11.91 7.0142 11.5058 6.60999 11.0001 6.60999C10.4943 6.60999 10.0901 7.0142 10.0901 7.52002C10.0901 7.93423 9.7543 8.27002 9.34009 8.27002C8.92587 8.27002 8.59009 7.93423 8.59009 7.52002Z" fill="#787486"/>
<path fill-rule="evenodd" clip-rule="evenodd" d="M10.2456 12.75C10.2456 12.3358 10.5814 12 10.9956 12H11.0046C11.4188 12 11.7546 12.3358 11.7546 12.75C11.7546 13.1642 11.4188 13.5 11.0046 13.5H10.9956C10.5814 13.5 10.2456 13.1642 10.2456 12.75Z" fill="#787486"/>
</svg>
