<svg width="16" height="10" viewBox="0 0 16 10" fill="none" xmlns="http://www.w3.org/2000/svg">
<path d="M11.0001 9.16667H9.99341C9.72007 9.16667 9.49341 8.94 9.49341 8.66667C9.49341 8.39333 9.72007 8.16667 9.99341 8.16667H11.0001C12.7467 8.16667 14.1667 6.74667 14.1667 5C14.1667 3.25333 12.7467 1.83333 11.0001 1.83333H10.0001C9.72674 1.83333 9.50008 1.60667 9.50008 1.33333C9.50008 1.06 9.72008 0.833333 10.0001 0.833333H11.0001C13.3001 0.833333 15.1667 2.7 15.1667 5C15.1667 7.3 13.3001 9.16667 11.0001 9.16667Z" fill="#5030E5"/>
<path fill-rule="evenodd" clip-rule="evenodd" d="M11 9.46667H9.99336C9.55434 9.46667 9.19336 9.10569 9.19336 8.66667C9.19336 8.22765 9.55434 7.86667 9.99336 7.86667H11C12.581 7.86667 13.8667 6.58098 13.8667 5C13.8667 3.41902 12.581 2.13333 11 2.13333H10C9.56101 2.13333 9.20003 1.77235 9.20003 1.33333C9.20003 0.896927 9.55174 0.533333 10 0.533333H11C13.4657 0.533333 15.4667 2.53431 15.4667 5C15.4667 7.46569 13.4657 9.46667 11 9.46667ZM9.99336 9.16667H11C13.3 9.16667 15.1667 7.3 15.1667 5C15.1667 2.7 13.3 0.833333 11 0.833333H10C9.72003 0.833333 9.50003 1.06 9.50003 1.33333C9.50003 1.60667 9.72669 1.83333 10 1.83333H11C12.7467 1.83333 14.1667 3.25333 14.1667 5C14.1667 6.74667 12.7467 8.16667 11 8.16667H9.99336C9.72003 8.16667 9.49336 8.39333 9.49336 8.66667C9.49336 8.94 9.72003 9.16667 9.99336 9.16667Z" fill="#5030E5"/>
<path d="M6.00016 9.16667H5.00016C2.70016 9.16667 0.833496 7.3 0.833496 5C0.833496 2.7 2.70016 0.833333 5.00016 0.833333H6.00016C6.2735 0.833333 6.50016 1.06 6.50016 1.33333C6.50016 1.60667 6.2735 1.83333 6.00016 1.83333H5.00016C3.2535 1.83333 1.8335 3.25333 1.8335 5C1.8335 6.74667 3.2535 8.16667 5.00016 8.16667H6.00016C6.2735 8.16667 6.50016 8.39333 6.50016 8.66667C6.50016 8.94 6.2735 9.16667 6.00016 9.16667Z" fill="#5030E5"/>
<path fill-rule="evenodd" clip-rule="evenodd" d="M6.00011 9.46667H5.00011C2.53443 9.46667 0.533447 7.46569 0.533447 5C0.533447 2.53432 2.53443 0.533333 5.00011 0.533333H6.00011C6.43913 0.533333 6.80011 0.894315 6.80011 1.33333C6.80011 1.77235 6.43913 2.13333 6.00011 2.13333H5.00011C3.41913 2.13333 2.13345 3.41902 2.13345 5C2.13345 6.58098 3.41913 7.86667 5.00011 7.86667H6.00011C6.43913 7.86667 6.80011 8.22765 6.80011 8.66667C6.80011 9.10569 6.43913 9.46667 6.00011 9.46667ZM5.00011 9.16667H6.00011C6.27345 9.16667 6.50011 8.94 6.50011 8.66667C6.50011 8.39333 6.27345 8.16667 6.00011 8.16667H5.00011C3.25345 8.16667 1.83345 6.74667 1.83345 5C1.83345 3.25333 3.25345 1.83333 5.00011 1.83333H6.00011C6.27345 1.83333 6.50011 1.60667 6.50011 1.33333C6.50011 1.06 6.27345 0.833333 6.00011 0.833333H5.00011C2.70011 0.833333 0.833447 2.7 0.833447 5C0.833447 7.3 2.70011 9.16667 5.00011 9.16667Z" fill="#5030E5"/>
<path d="M10.6668 5.5H5.3335C5.06016 5.5 4.8335 5.27333 4.8335 5C4.8335 4.72667 5.06016 4.5 5.3335 4.5H10.6668C10.9402 4.5 11.1668 4.72667 11.1668 5C11.1668 5.27333 10.9402 5.5 10.6668 5.5Z" fill="#5030E5"/>
<path fill-rule="evenodd" clip-rule="evenodd" d="M10.6668 5.8H5.33345C4.89443 5.8 4.53345 5.43902 4.53345 5C4.53345 4.56098 4.89443 4.2 5.33345 4.2H10.6668C11.1058 4.2 11.4668 4.56098 11.4668 5C11.4668 5.43902 11.1058 5.8 10.6668 5.8ZM5.33345 5.5H10.6668C10.9401 5.5 11.1668 5.27333 11.1668 5C11.1668 4.72667 10.9401 4.5 10.6668 4.5H5.33345C5.06011 4.5 4.83345 4.72667 4.83345 5C4.83345 5.27333 5.06011 5.5 5.33345 5.5Z" fill="#5030E5"/>
</svg>
