<svg width="22" height="22" viewBox="0 0 22 22" fill="none" xmlns="http://www.w3.org/2000/svg">
<path fill-rule="evenodd" clip-rule="evenodd" d="M7.99994 1.75C5.95525 1.75 4.30994 3.40311 4.30994 5.44C4.30994 7.42302 5.85901 9.03198 7.81482 9.11885C7.93343 9.1106 8.05873 9.1102 8.17694 9.11877C10.1308 9.03098 11.6808 7.42308 11.6899 5.43847C11.6891 3.40339 10.0352 1.75 7.99994 1.75ZM2.80994 5.44C2.80994 2.57689 5.12462 0.25 7.99994 0.25C10.8642 0.25 13.1899 2.57579 13.1899 5.44L13.1899 5.44313C13.1783 8.24352 10.9709 10.5259 8.18513 10.6196C8.15182 10.6207 8.11847 10.6196 8.08531 10.6163C8.03709 10.6115 7.96503 10.6108 7.89784 10.6169C7.86689 10.6197 7.8358 10.6206 7.80474 10.6196C5.01953 10.526 2.80994 8.24337 2.80994 5.44Z" fill="#787486"/>
<path fill-rule="evenodd" clip-rule="evenodd" d="M14.66 3C14.66 2.58579 14.9958 2.25 15.41 2.25C17.7656 2.25 19.66 4.15718 19.66 6.5C19.66 8.79545 17.8389 10.6645 15.568 10.7495C15.5276 10.751 15.4871 10.7492 15.4469 10.7442C15.432 10.7423 15.4014 10.7411 15.3628 10.7454C14.9511 10.7912 14.5803 10.4945 14.5346 10.0828C14.4888 9.67114 14.7855 9.30033 15.1971 9.25459C15.3149 9.2415 15.4383 9.23847 15.56 9.24831C17.0067 9.169 18.16 7.9683 18.16 6.5C18.16 4.98282 16.9344 3.75 15.41 3.75C14.9958 3.75 14.66 3.41421 14.66 3Z" fill="#787486"/>
<path fill-rule="evenodd" clip-rule="evenodd" d="M8.17247 11.4375C10.1007 11.4375 12.067 11.9214 13.5865 12.9363C14.9524 13.8454 15.735 15.1198 15.735 16.4913C15.735 17.8626 14.9525 19.1393 13.5872 20.0532L13.587 20.0533C12.0628 21.0732 10.0941 21.56 8.16497 21.56C6.23626 21.56 4.26788 21.0734 2.74379 20.0539C1.37768 19.1448 0.594971 17.8703 0.594971 16.4987C0.594971 15.1274 1.37741 13.8507 2.74276 12.9368L2.74551 12.9349L2.74551 12.9349C4.27395 11.9215 6.24403 11.4375 8.17247 11.4375ZM3.5758 14.1842C2.52216 14.89 2.09497 15.7429 2.09497 16.4987C2.09497 17.2544 2.52198 18.1047 3.5754 18.8056L3.57704 18.8067C4.80283 19.6268 6.46405 20.06 8.16497 20.06C9.86582 20.06 11.527 19.6269 12.7528 18.8068C13.8074 18.1007 14.235 17.2474 14.235 16.4913C14.235 15.7356 13.808 14.8853 12.7545 14.1844L12.7534 14.1837C11.533 13.3686 9.87427 12.9375 8.17247 12.9375C6.47154 12.9375 4.80724 13.3682 3.5758 14.1842Z" fill="#787486"/>
<path fill-rule="evenodd" clip-rule="evenodd" d="M16.6383 12.8351C16.7294 12.431 17.1308 12.1773 17.5349 12.2684C18.3243 12.4462 19.099 12.7636 19.7526 13.262C20.6937 13.9688 21.22 14.954 21.22 15.995C21.22 17.0357 20.694 18.0206 19.7534 18.7274C19.092 19.2344 18.3053 19.565 17.493 19.7342C17.0875 19.8187 16.6902 19.5585 16.6058 19.153C16.5213 18.7475 16.7815 18.3502 17.187 18.2658C17.8133 18.1353 18.3854 17.8867 18.8432 17.5351L18.85 17.53L18.85 17.53C19.4673 17.067 19.72 16.503 19.72 15.995C19.72 15.487 19.4673 14.923 18.85 14.46L18.8448 14.4561L18.8448 14.4561C18.3989 14.1156 17.8347 13.8735 17.2051 13.7317C16.801 13.6406 16.5473 13.2392 16.6383 12.8351Z" fill="#787486"/>
</svg>
