<svg width="24" height="24" viewBox="0 0 24 24" fill="none" xmlns="http://www.w3.org/2000/svg">
<path fill-rule="evenodd" clip-rule="evenodd" d="M5.26996 8.91C5.26996 5.18579 8.29575 2.16 12.02 2.16C15.7342 2.16 18.77 5.19579 18.77 8.91V11.8C18.77 12.0149 18.8186 12.3294 18.9108 12.6654C19.0018 12.9974 19.1194 13.2924 19.2264 13.4797L20.3731 15.3841C21.2786 16.8934 20.5547 18.8595 18.8865 19.4117C14.4226 20.9029 9.60617 20.9028 5.1423 19.4114L5.13951 19.4104C4.29711 19.1253 3.66535 18.5358 3.38288 17.7729C3.10008 17.0092 3.19629 16.1496 3.65732 15.3833L4.80575 13.476C4.806 13.4755 4.80626 13.4751 4.80651 13.4747C4.91602 13.2906 5.03597 12.9966 5.12854 12.6631C5.22139 12.3287 5.26996 12.0146 5.26996 11.8V8.91ZM12.02 3.66C9.12418 3.66 6.76996 6.01422 6.76996 8.91V11.8C6.76996 12.1954 6.68854 12.6513 6.57388 13.0644C6.45917 13.4776 6.29446 13.9081 6.09417 14.2441L6.09249 14.2469L4.9426 16.1567C4.94256 16.1567 4.94264 16.1566 4.9426 16.1567C4.69375 16.5704 4.67986 16.9558 4.78954 17.2521C4.89947 17.5489 5.16231 17.8342 5.61907 17.9891C9.77441 19.3771 14.257 19.377 18.4123 17.9887L18.4146 17.9879C19.1653 17.7397 19.5009 16.8468 19.0872 16.1564C19.0871 16.1562 19.0873 16.1566 19.0872 16.1564L17.9302 14.2349C17.7381 13.9019 17.5772 13.4744 17.4642 13.0621C17.3513 12.6507 17.27 12.1951 17.27 11.8V8.91C17.27 6.02422 14.9057 3.66 12.02 3.66Z" fill="#787486"/>
<path fill-rule="evenodd" clip-rule="evenodd" d="M9.47164 2.92635C9.87109 1.90707 10.8628 1.19 12.0199 1.19C13.1771 1.19 14.1688 1.90707 14.5682 2.92635C14.6725 3.19242 14.6165 3.49463 14.4238 3.70568C14.2311 3.91673 13.9353 3.99994 13.6608 3.92026C13.3834 3.83972 13.1034 3.77895 12.8197 3.74455L12.8169 3.74421C11.9525 3.63616 11.1357 3.70029 10.3793 3.92019C10.1048 3.99997 9.80888 3.91683 9.61614 3.70577C9.42339 3.49472 9.36736 3.19246 9.47164 2.92635Z" fill="#787486"/>
<path fill-rule="evenodd" clip-rule="evenodd" d="M9.77002 19.06C9.77002 19.6725 10.0248 20.2441 10.4303 20.6497C10.8359 21.0552 11.4075 21.31 12.02 21.31C13.2558 21.31 14.27 20.2958 14.27 19.06H15.77C15.77 21.1242 14.0842 22.81 12.02 22.81C10.9925 22.81 10.0442 22.3848 9.36969 21.7103C8.69521 21.0359 8.27002 20.0875 8.27002 19.06H9.77002Z" fill="#787486"/>
<circle cx="18" cy="4" r="3" fill="#D8727D"/>
</svg>
