<svg width="14" height="15" viewBox="0 0 14 15" fill="none" xmlns="http://www.w3.org/2000/svg">
<path fill-rule="evenodd" clip-rule="evenodd" d="M9.907 0.0143301C10.8786 -0.078314 11.8243 0.357003 12.744 1.28325C13.6652 2.20486 14.0919 3.15146 13.9948 4.12012C13.9017 5.04901 13.3414 5.80681 12.7429 6.40534L6.2554 12.8928C6.05381 13.0944 5.79281 13.2597 5.54992 13.3792C5.30615 13.4992 5.0195 13.6031 4.7436 13.6425L2.26574 13.9929C1.61906 14.0827 0.99138 13.9082 0.547857 13.4647C0.104334 13.0212 -0.0701196 12.3935 0.0196969 11.7468L0.0199546 11.745L0.370102 9.26894C0.409517 8.99304 0.51342 8.7064 0.633363 8.46263C0.752875 8.21975 0.918139 7.95876 1.11973 7.75718L7.60723 1.26968C8.2121 0.664803 8.97436 0.103257 9.907 0.0143301ZM10.0494 1.50756C9.63826 1.54676 9.18801 1.81021 8.66789 2.33034L2.18039 8.81784C2.13197 8.86625 2.05349 8.97402 1.97926 9.12488C1.90558 9.27461 1.86575 9.40652 1.85508 9.48069C1.85506 9.48082 1.8551 9.48056 1.85508 9.48069L1.50544 11.9532C1.5054 11.9535 1.50547 11.9529 1.50544 11.9532C1.47053 12.206 1.54586 12.3414 1.60852 12.4041C1.67119 12.4667 1.80584 12.5422 2.05876 12.5072C2.05897 12.5072 2.05855 12.5073 2.05876 12.5072L4.53147 12.1575C4.53153 12.1575 4.53141 12.1576 4.53147 12.1575C4.6056 12.1469 4.73781 12.1071 4.88768 12.0333C5.03856 11.9591 5.14633 11.8806 5.19474 11.8322L11.6822 5.34468C12.1962 4.8307 12.461 4.38225 12.5022 3.97052C12.5395 3.59893 12.4103 3.07089 11.6822 2.34284L11.6802 2.34083C10.9502 1.60522 10.4212 1.47211 10.0494 1.50756Z" fill="#5030E5"/>
<path fill-rule="evenodd" clip-rule="evenodd" d="M7.0102 2.00283C7.40905 1.89106 7.82299 2.12377 7.93477 2.52262C8.4146 4.23473 9.75609 5.58596 11.4763 6.065C11.8753 6.17612 12.1087 6.58968 11.9976 6.98871C11.8865 7.38774 11.4729 7.62114 11.0739 7.51002C8.8441 6.88906 7.11059 5.14029 6.49042 2.9274C6.37864 2.52856 6.61135 2.11461 7.0102 2.00283Z" fill="#5030E5"/>
</svg>
