<svg width="21" height="20" viewBox="0 0 21 20" fill="none" xmlns="http://www.w3.org/2000/svg">
<path fill-rule="evenodd" clip-rule="evenodd" d="M10.3416 1.58334C5.94637 1.58334 2.3833 5.1464 2.3833 9.54167C2.3833 13.9369 5.94637 17.5 10.3416 17.5C14.7369 17.5 18.3 13.9369 18.3 9.54167C18.3 5.1464 14.7369 1.58334 10.3416 1.58334ZM0.883301 9.54167C0.883301 4.31798 5.11794 0.0833359 10.3416 0.0833359C15.5653 0.0833359 19.8 4.31798 19.8 9.54167C19.8 14.7654 15.5653 19 10.3416 19C5.11794 19 0.883301 14.7654 0.883301 9.54167Z" fill="#787486"/>
<path fill-rule="evenodd" clip-rule="evenodd" d="M17.603 16.803C17.8959 16.5101 18.3707 16.5101 18.6636 16.803L20.497 18.6363C20.7899 18.9292 20.7899 19.4041 20.497 19.697C20.2041 19.9899 19.7292 19.9899 19.4363 19.697L17.603 17.8637C17.3101 17.5708 17.3101 17.0959 17.603 16.803Z" fill="#787486"/>
</svg>
