<svg width="22" height="22" viewBox="0 0 22 22" fill="none" xmlns="http://www.w3.org/2000/svg">
<path fill-rule="evenodd" clip-rule="evenodd" d="M10.62 7.88C10.62 7.46578 10.9558 7.13 11.37 7.13H16.62C17.0342 7.13 17.37 7.46578 17.37 7.88C17.37 8.29421 17.0342 8.63 16.62 8.63H11.37C10.9558 8.63 10.62 8.29421 10.62 7.88Z" fill="#787486"/>
<path fill-rule="evenodd" clip-rule="evenodd" d="M8.91034 5.84967C9.20323 6.14256 9.20323 6.61743 8.91034 6.91033L6.66033 9.16033C6.36744 9.45322 5.89257 9.45322 5.59967 9.16033L4.84967 8.41033C4.55678 8.11743 4.55678 7.64256 4.84967 7.34967C5.14257 7.05677 5.61744 7.05677 5.91033 7.34967L6.13 7.56934L7.84967 5.84967C8.14257 5.55677 8.61744 5.55677 8.91034 5.84967Z" fill="#787486"/>
<path fill-rule="evenodd" clip-rule="evenodd" d="M10.62 14.88C10.62 14.4658 10.9558 14.13 11.37 14.13H16.62C17.0342 14.13 17.37 14.4658 17.37 14.88C17.37 15.2942 17.0342 15.63 16.62 15.63H11.37C10.9558 15.63 10.62 15.2942 10.62 14.88Z" fill="#787486"/>
<path fill-rule="evenodd" clip-rule="evenodd" d="M8.91034 12.8497C9.20323 13.1426 9.20323 13.6174 8.91034 13.9103L6.66033 16.1603C6.36744 16.4532 5.89257 16.4532 5.59968 16.1603L4.84968 15.4103C4.55678 15.1174 4.55678 14.6426 4.84967 14.3497C5.14257 14.0568 5.61744 14.0568 5.91033 14.3497L6.13 14.5693L7.84967 12.8497C8.14257 12.5568 8.61744 12.5568 8.91034 12.8497Z" fill="#787486"/>
<path fill-rule="evenodd" clip-rule="evenodd" d="M2.09467 2.09467C3.42914 0.760201 5.42603 0.25 8 0.25H14C16.574 0.25 18.5709 0.760201 19.9053 2.09467C21.2398 3.42914 21.75 5.42603 21.75 8V14C21.75 16.574 21.2398 18.5709 19.9053 19.9053C18.5709 21.2398 16.574 21.75 14 21.75H8C5.42603 21.75 3.42914 21.2398 2.09467 19.9053C0.760201 18.5709 0.25 16.574 0.25 14V8C0.25 5.42603 0.760201 3.42914 2.09467 2.09467ZM3.15533 3.15533C2.2398 4.07086 1.75 5.57397 1.75 8V14C1.75 16.426 2.2398 17.9291 3.15533 18.8447C4.07086 19.7602 5.57397 20.25 8 20.25H14C16.426 20.25 17.9291 19.7602 18.8447 18.8447C19.7602 17.9291 20.25 16.426 20.25 14V8C20.25 5.57397 19.7602 4.07086 18.8447 3.15533C17.9291 2.2398 16.426 1.75 14 1.75H8C5.57397 1.75 4.07086 2.2398 3.15533 3.15533Z" fill="#787486"/>
</svg>
